<?xml version="1.0" encoding="UTF-8" standalone="no"?>
<!-- Created with Inkscape (http://www.inkscape.org/) -->

<svg
   xmlns:dc="http://purl.org/dc/elements/1.1/"
   xmlns:cc="http://creativecommons.org/ns#"
   xmlns:rdf="http://www.w3.org/1999/02/22-rdf-syntax-ns#"
   xmlns:svg="http://www.w3.org/2000/svg"
   xmlns="http://www.w3.org/2000/svg"
   xmlns:sodipodi="http://sodipodi.sourceforge.net/DTD/sodipodi-0.dtd"
   xmlns:inkscape="http://www.inkscape.org/namespaces/inkscape"
   width="140mm"
   height="148mm"
   viewBox="0 0 140 148"
   version="1.1"
   id="svg8"
   sodipodi:docname="Shapes_colored_v4.svg"
   inkscape:version="0.92.4 (5da689c313, 2019-01-14)"
   inkscape:export-filename="C:\Users\Michel\Desktop\Shapes_colored_300dpi.png"
   inkscape:export-xdpi="300"
   inkscape:export-ydpi="300">
  <defs
     id="defs2">
    <inkscape:perspective
       sodipodi:type="inkscape:persp3d"
       inkscape:vp_x="182.37672 : 97.765098 : 1"
       inkscape:vp_y="0 : 658.40192 : 0"
       inkscape:vp_z="249.72969 : 99.037408 : 1"
       inkscape:persp3d-origin="261.97753 : 71.680078 : 1"
       id="perspective4779" />
    <inkscape:perspective
       sodipodi:type="inkscape:persp3d"
       inkscape:vp_x="17.62983 : 74.003762 : 1"
       inkscape:vp_y="0 : 2587.4568 : 0"
       inkscape:vp_z="277.63065 : 79.003762 : 1"
       inkscape:persp3d-origin="324.91052 : -28.507875 : 1"
       id="perspective4763" />
    <inkscape:perspective
       sodipodi:type="inkscape:persp3d"
       inkscape:vp_x="10.059089 : 74.125922 : 1"
       inkscape:vp_y="0 : 2587.4568 : 0"
       inkscape:vp_z="270.05991 : 79.125922 : 1"
       inkscape:persp3d-origin="317.33978 : -28.385715 : 1"
       id="perspective4747" />
    <inkscape:perspective
       sodipodi:type="inkscape:persp3d"
       inkscape:vp_x="8.4715801 : 74.125922 : 1"
       inkscape:vp_y="0 : 2587.4568 : 0"
       inkscape:vp_z="268.4724 : 79.125922 : 1"
       inkscape:persp3d-origin="315.75227 : -28.385715 : 1"
       id="perspective4731" />
    <inkscape:perspective
       sodipodi:type="inkscape:persp3d"
       inkscape:vp_x="172.67058 : 97.56196 : 1"
       inkscape:vp_y="0 : 658.40199 : 0"
       inkscape:vp_z="240.02354 : 98.834268 : 1"
       inkscape:persp3d-origin="252.27137 : 71.476938 : 1"
       id="perspective4679" />
    <inkscape:perspective
       sodipodi:type="inkscape:persp3d"
       inkscape:vp_x="17.63054 : 74.003762 : 1"
       inkscape:vp_y="0 : 2587.4568 : 0"
       inkscape:vp_z="277.63053 : 79.003762 : 1"
       inkscape:persp3d-origin="324.91026 : -28.507875 : 1"
       id="perspective4677" />
    <inkscape:perspective
       sodipodi:type="inkscape:persp3d"
       inkscape:vp_x="17.63054 : 74.125922 : 1"
       inkscape:vp_y="0 : 2587.4568 : 0"
       inkscape:vp_z="277.63053 : 79.125922 : 1"
       inkscape:persp3d-origin="324.91026 : -28.385715 : 1"
       id="perspective4661" />
    <inkscape:perspective
       sodipodi:type="inkscape:persp3d"
       inkscape:vp_x="163.37325 : 97.831968 : 1"
       inkscape:vp_y="0 : 658.40158 : 0"
       inkscape:vp_z="230.7262 : 99.104268 : 1"
       inkscape:persp3d-origin="242.974 : 71.746964 : 1"
       id="perspective3715" />
    <inkscape:perspective
       sodipodi:type="inkscape:persp3d"
       inkscape:vp_x="119.16339 : 103.78045 : 1"
       inkscape:vp_y="0 : 383.43588 : 0"
       inkscape:vp_z="157.693 : 104.52139 : 1"
       inkscape:persp3d-origin="164.69942 : 88.589215 : 1"
       id="perspective3715-9" />
  </defs>
  <sodipodi:namedview
     id="base"
     pagecolor="#ffffff"
     bordercolor="#666666"
     borderopacity="1.0"
     inkscape:pageopacity="0.0"
     inkscape:pageshadow="2"
     inkscape:zoom="2.8284271"
     inkscape:cx="573.48346"
     inkscape:cy="334.79638"
     inkscape:document-units="mm"
     inkscape:current-layer="layer1"
     showgrid="true"
     showguides="false"
     gridtolerance="10"
     objecttolerance="20"
     inkscape:window-width="4800"
     inkscape:window-height="2544"
     inkscape:window-x="-16"
     inkscape:window-y="-16"
     inkscape:window-maximized="1"
     inkscape:snap-path-mask="true"
     guidetolerance="7"
     width="140mm">
    <inkscape:grid
       type="xygrid"
       id="grid3713" />
  </sodipodi:namedview>
  <metadata
     id="metadata5">
    <rdf:RDF>
      <cc:Work
         rdf:about="">
        <dc:format>image/svg+xml</dc:format>
        <dc:type
           rdf:resource="http://purl.org/dc/dcmitype/StillImage" />
        <dc:title></dc:title>
      </cc:Work>
    </rdf:RDF>
  </metadata>
  <g
     inkscape:label="Layer 1"
     inkscape:groupmode="layer"
     id="layer1"
     transform="translate(0,-149)">
    <g
       id="g1243"
       style="stroke:#ffffff;stroke-opacity:1"
       inkscape:export-xdpi="300"
       inkscape:export-ydpi="300"
       transform="translate(-15.870043,32.983737)">
      <path
         inkscape:connector-curvature="0"
         id="path4864"
         d="M 60.689651,163.43957 83.26149,177.93752 71.437499,185.875 60.689651,163.43957"
         style="fill:none;stroke:#ffffff;stroke-width:0.30000001;stroke-miterlimit:4;stroke-dasharray:none;stroke-opacity:1" />
      <path
         sodipodi:nodetypes="cccc"
         inkscape:connector-curvature="0"
         id="path4881"
         d="M 71.437499,185.875 H 95.25 l -11.98851,-7.93748 z"
         style="fill:none;stroke:#ffffff;stroke-width:0.30000001;stroke-miterlimit:4;stroke-dasharray:none;stroke-opacity:1" />
      <path
         sodipodi:nodetypes="cccc"
         style="fill:none;stroke:#ffffff;stroke-width:0.30000001;stroke-miterlimit:4;stroke-dasharray:none;stroke-opacity:1"
         d="M 71.437499,185.875 H 95.25 c -3.891191,2.57563 -7.96492,5.29167 -11.90625,7.9375 z"
         id="path4883"
         inkscape:connector-curvature="0" />
      <path
         sodipodi:nodetypes="cccc"
         style="fill:none;stroke:#ffffff;stroke-width:0.30000001;stroke-miterlimit:4;stroke-dasharray:none;stroke-opacity:1"
         d="M 95.167737,185.87502 95.25,193.8125 H 83.34375 Z"
         id="path4887"
         inkscape:connector-curvature="0" />
      <path
         inkscape:connector-curvature="0"
         id="path4889"
         d="M 71.437499,193.8125 83.383638,205.75864 95.249999,193.8125 Z"
         style="fill:none;stroke:#ffffff;stroke-width:0.30000001;stroke-miterlimit:4;stroke-dasharray:none;stroke-opacity:1" />
      <path
         inkscape:connector-curvature="0"
         id="path4891"
         d="m 83.383638,205.75864 9.220528,14.5122 15.875004,-26.45834 H 95.249999 Z"
         style="fill:none;stroke:#ffffff;stroke-width:0.30000001;stroke-miterlimit:4;stroke-dasharray:none;stroke-opacity:1" />
      <path
         sodipodi:nodetypes="ccccc"
         style="fill:none;stroke:#ffffff;stroke-width:0.30000001;stroke-miterlimit:4;stroke-dasharray:none;stroke-opacity:1"
         d="M 83.383638,205.75864 74.163109,220.27084 58.208333,193.8125 H 71.437499 Z"
         id="path4893"
         inkscape:connector-curvature="0" />
      <path
         sodipodi:nodetypes="ccccc"
         inkscape:connector-curvature="0"
         id="path4895"
         d="m 108.47917,193.8125 2.64583,-10.58333 13.22917,-2.64583 -5.29167,10.58333 -10.58333,2.64583"
         style="fill:none;stroke:#ffffff;stroke-width:0.30000001;stroke-miterlimit:4;stroke-dasharray:none;stroke-opacity:1" />
      <path
         sodipodi:nodetypes="ccccc"
         style="fill:none;stroke:#ffffff;stroke-width:0.30000001;stroke-miterlimit:4;stroke-dasharray:none;stroke-opacity:1"
         d="m 58.208333,193.8125 -2.645833,-10.58333 -13.229167,-2.64583 5.29167,10.58333 10.58333,2.64583"
         id="path4906"
         inkscape:connector-curvature="0" />
      <path
         inkscape:connector-curvature="0"
         id="path4908"
         d="m 60.689651,163.43957 -13.064652,-11.9604 -10.583333,13.22917 5.291667,15.875 13.229166,2.64583 2.645834,10.58333 h 13.229166 v -7.9375 z"
         style="fill:none;stroke:#ffffff;stroke-width:0.30000001;stroke-miterlimit:4;stroke-dasharray:none;stroke-opacity:1" />
      <path
         sodipodi:nodetypes="ccccccccc"
         style="fill:none;stroke:#ffffff;stroke-width:0.30000001;stroke-miterlimit:4;stroke-dasharray:none;stroke-opacity:1"
         d="m 105.83333,163.41063 13.22917,-11.93146 10.58333,13.22917 -5.29166,15.875 -13.22917,2.64583 -2.64583,10.58333 H 95.25 v -7.9375 z"
         id="path4910"
         inkscape:connector-curvature="0" />
      <path
         sodipodi:nodetypes="ccccccc"
         inkscape:connector-curvature="0"
         id="path4914"
         d="m 71.437499,220.27084 h 23.8125 l 3.968751,5.29166 -3.968751,5.29167 h -23.8125 L 67.46875,225.5625 Z"
         style="fill:none;stroke:#ffffff;stroke-width:0.30000001;stroke-miterlimit:4;stroke-dasharray:none;stroke-opacity:1" />
      <path
         sodipodi:nodetypes="cccc"
         inkscape:connector-curvature="0"
         id="path4916"
         d="m 95.249999,230.85417 2.645834,3.96875 1.322917,-9.26042 z"
         style="fill:none;stroke:#ffffff;stroke-width:0.30000001;stroke-miterlimit:4;stroke-dasharray:none;stroke-opacity:1" />
      <path
         sodipodi:nodetypes="cccc"
         inkscape:connector-curvature="0"
         id="path4918"
         d="m 71.437499,230.85417 -2.645832,3.96875 -1.322917,-9.26042 z"
         style="fill:none;stroke:#ffffff;stroke-width:0.30000001;stroke-miterlimit:4;stroke-dasharray:none;stroke-opacity:1" />
      <path
         sodipodi:nodetypes="ccccc"
         inkscape:connector-curvature="0"
         id="path4920"
         d="m 68.791667,234.82292 h 29.104166 l -2.645834,-3.96875 h -23.8125 z"
         style="fill:none;stroke:#ffffff;stroke-width:0.30000001;stroke-miterlimit:4;stroke-dasharray:none;stroke-opacity:1" />
      <path
         sodipodi:nodetypes="cccccc"
         inkscape:connector-curvature="0"
         id="path4922"
         d="M 47.624999,151.47917 H 119.0625 l -13.22917,11.93146 -22.57184,14.52689 -22.571839,-14.49795 z"
         style="fill:none;stroke:#ffffff;stroke-width:0.30000001;stroke-miterlimit:4;stroke-dasharray:none;stroke-opacity:1" />
      <path
         inkscape:connector-curvature="0"
         id="path4924"
         d="m 47.624999,151.47917 23.8125,-15.875 h 23.8125 l 23.812501,15.875 z"
         style="fill:none;stroke:#ffffff;stroke-width:0.30000001;stroke-miterlimit:4;stroke-dasharray:none;stroke-opacity:1" />
      <path
         inkscape:connector-curvature="0"
         id="path4928"
         d="m 119.0625,151.47917 23.8125,-7.9375 -13.22917,21.16667 z"
         style="fill:none;stroke:#ffffff;stroke-width:0.30000001;stroke-miterlimit:4;stroke-dasharray:none;stroke-opacity:1" />
      <path
         sodipodi:nodetypes="cccc"
         inkscape:connector-curvature="0"
         id="path4930"
         d="m 130.96875,147.51042 1.32291,-25.13541 10.58334,21.16666 z"
         style="fill:none;stroke:#ffffff;stroke-width:0.30000001;stroke-miterlimit:4;stroke-dasharray:none;stroke-opacity:1" />
      <path
         style="fill:none;stroke:#ffffff;stroke-width:0.30000001;stroke-miterlimit:4;stroke-dasharray:none;stroke-opacity:1"
         d="m 47.625,151.47917 -23.8125,-7.9375 13.22917,21.16667 z"
         id="path4934"
         inkscape:connector-curvature="0" />
      <path
         style="fill:none;stroke:#ffffff;stroke-width:0.30000001;stroke-miterlimit:4;stroke-dasharray:none;stroke-opacity:1"
         d="M 35.71875,147.51042 34.39584,122.37501 23.8125,143.54167 Z"
         id="path4936"
         inkscape:connector-curvature="0"
         sodipodi:nodetypes="cccc" />
      <path
         inkscape:connector-curvature="0"
         id="path4938"
         d="m 129.64583,164.70834 -5.29166,15.875 -5.29167,10.58333 -10.58333,2.64583 -15.875003,26.45834 h 2.645832 l 3.96875,5.29166 -1.322917,9.26042 H 68.791666 l -1.322917,-9.26042 3.96875,-5.29166 h 2.72561 l -15.954776,-26.45834 -10.583331,-2.64583 -5.291669,-10.58333 -5.291667,-15.875 7.9375,55.5625 21.166666,26.45833 h 34.395838 l 21.16666,-26.45833 z"
         style="fill:none;stroke:#ffffff;stroke-width:0.30000001;stroke-miterlimit:4;stroke-dasharray:none;stroke-opacity:1"
         sodipodi:nodetypes="ccccccccccccccccccccc" />
      <path
         sodipodi:nodetypes="cccccc"
         inkscape:connector-curvature="0"
         id="path4940"
         d="m 70.114582,246.72917 h 26.458333 l -2.645832,7.9375 -10.583333,1.32292 -10.583333,-1.32292 z"
         style="fill:none;stroke:#ffffff;stroke-width:0.30000001;stroke-miterlimit:4;stroke-dasharray:none;stroke-opacity:1" />
      <path
         inkscape:connector-curvature="0"
         id="path4942"
         d="m 70.114582,246.72917 13.229168,9.26042 13.229165,-9.26042 z"
         style="fill:none;stroke:#ffffff;stroke-width:0.30000001;stroke-miterlimit:4;stroke-dasharray:none;stroke-opacity:1"
         sodipodi:nodetypes="cccc" />
      <path
         sodipodi:nodetypes="ccccccc"
         inkscape:connector-curvature="0"
         id="path5007"
         d="m 132.1325,160.73958 9.41958,3.96876 1.32292,3.96875 -5.29167,6.61458 -8.83047,-3.96875 0.89297,-6.61458 z"
         style="fill:none;stroke:#ffffff;stroke-width:0.30000001;stroke-miterlimit:4;stroke-dasharray:none;stroke-opacity:1" />
      <path
         style="fill:none;stroke:#ffffff;stroke-width:0.30000001;stroke-miterlimit:4;stroke-dasharray:none;stroke-opacity:1"
         d="m 34.563265,160.73958 -9.427852,3.96876 -1.32292,3.96875 5.29167,6.61458 8.83047,-3.96875 -0.89297,-6.61458 z"
         id="path5009"
         inkscape:connector-curvature="0"
         sodipodi:nodetypes="ccccccc" />
      <path
         inkscape:connector-curvature="0"
         id="path55"
         d="m 55.630545,233.46102 c -5.797402,-7.24675 -10.558769,-13.22949 -10.580817,-13.29499 -0.02828,-0.084 -7.570494,-52.81459 -7.780737,-54.39818 -0.01196,-0.09 1.111771,3.22494 2.497164,7.36662 l 2.518899,7.53031 2.644016,5.28526 2.644018,5.28525 5.252186,1.30963 c 2.888702,0.72029 5.288295,1.34119 5.332428,1.37977 0.07192,0.0629 15.852637,26.20643 15.852637,26.2627 0,0.0128 -0.589238,0.0233 -1.309417,0.0233 h -1.309415 l -2.000052,2.66634 -2.000051,2.66635 0.642037,4.4781 c 0.353119,2.46296 0.651076,4.57282 0.662128,4.68858 0.01106,0.11576 0.02222,0.23047 0.02479,0.25491 0.0026,0.0245 0.02997,0.0192 0.06084,-0.0117 0.07786,-0.0779 29.061296,-0.0822 29.109405,-0.004 0.04841,0.0783 0.09714,-0.0257 0.107463,-0.22934 0.0048,-0.0953 0.299347,-2.20022 0.654473,-4.67768 l 0.645695,-4.50446 -1.991596,-2.66136 -1.991592,-2.66136 -1.274541,-0.002 c -0.700997,-10e-4 -1.274543,-0.0143 -1.274543,-0.0293 0,-0.015 3.547068,-5.93907 7.882367,-13.16452 7.36711,-12.27842 7.89222,-13.13985 8.03312,-13.17798 0.0829,-0.0224 2.46318,-0.61786 5.28947,-1.32316 l 5.13871,-1.28238 2.64419,-5.28525 2.64418,-5.28526 2.51492,-7.53032 c 1.38321,-4.14167 2.51587,-7.49874 2.51703,-7.46016 0.001,0.0386 -1.75022,12.33032 -3.89195,27.31495 l -3.89405,27.24479 -10.56159,13.20144 -10.5616,13.20144 H 83.346014 66.171264 Z"
         style="fill:#806600;fill-opacity:1;stroke:#ffffff;stroke-width:0.30000001;stroke-miterlimit:4;stroke-dasharray:none;stroke-opacity:1" />
      <path
         inkscape:connector-curvature="0"
         id="path57"
         d="M 58.258982,236.70953 C 50.696965,227.25367 45.678587,220.95721 45.258227,220.39774 l -0.193283,-0.25725 -1.450811,-10.10279 c -1.934355,-13.47 -6.274054,-43.87316 -6.269754,-43.92479 0.0062,-0.074 0.167349,0.3993 2.56658,7.53605 l 2.374299,7.0626 2.635933,5.27019 2.63593,5.2702 4.141115,1.03518 c 5.049157,1.26217 6.419165,1.62167 6.466274,1.69679 0.7186,1.14594 12.250031,20.23132 15.252792,25.24451 l 0.546296,0.91206 -0.59636,0.0298 c -0.327999,0.0163 -0.912138,0.0321 -1.298089,0.0351 l -0.701727,0.005 -1.997777,2.66378 -1.997776,2.66378 0.652868,4.57422 c 0.359076,2.51581 0.653026,4.6439 0.653219,4.72909 l 2.64e-4,0.15487 0.198782,-0.027 c 0.220739,-0.03 19.250263,-0.0566 25.268663,-0.0353 l 3.835318,0.0136 0.03579,-0.24744 c 0.01968,-0.1361 0.320374,-2.25372 0.668192,-4.70584 l 0.632397,-4.45838 -0.526016,-0.70994 c -0.289309,-0.39046 -1.18478,-1.58867 -1.989934,-2.66267 l -1.463918,-1.95274 -0.759616,-0.006 c -0.417788,-0.003 -0.98733,-0.019 -1.265643,-0.0351 l -0.506028,-0.0291 6.847403,-11.41241 c 9.23004,-15.38351 8.887,-14.82522 9.15265,-14.89546 0.0914,-0.0241 2.45077,-0.61474 5.24304,-1.31238 l 5.07685,-1.26845 2.67373,-5.36366 2.67373,-5.36367 2.42235,-7.24617 c 1.3323,-3.98539 2.42838,-7.21494 2.43576,-7.17678 0.007,0.0382 -1.72303,12.23 -3.84532,27.09296 l -3.85872,27.02358 -10.56051,13.20698 -10.56051,13.20698 -17.154341,0.002 -17.15434,0.002 z"
         style="fill:#784421;fill-opacity:1;stroke:#ffffff;stroke-width:0.30000001;stroke-miterlimit:4;stroke-dasharray:none;stroke-opacity:1" />
      <path
         inkscape:connector-curvature="0"
         id="path59"
         d="m 71.765276,185.76654 c 0,-0.0109 2.110009,-1.43513 4.688908,-3.16498 2.578902,-1.72985 5.165389,-3.46755 5.747753,-3.86155 l 1.058841,-0.71637 5.840053,3.86476 c 3.212028,2.12561 5.848823,3.87222 5.859542,3.88135 0.01071,0.009 -5.203794,0.0166 -11.587806,0.0166 -6.384009,0 -11.607291,-0.009 -11.607291,-0.0198 z"
         style="fill:#784421;fill-opacity:1;stroke:#ffffff;stroke-width:0.30000001;stroke-miterlimit:4;stroke-dasharray:none;stroke-opacity:1" />
      <path
         inkscape:connector-curvature="0"
         id="path61"
         d="m 71.993045,170.60837 -11.253938,-7.22807 -6.461342,-5.91559 -6.461342,-5.9156 h 35.526096 35.526091 l -1.04853,0.94714 c -0.57669,0.52092 -3.52944,3.18367 -6.56167,5.91722 l -5.51316,4.97008 -11.201929,7.20821 c -6.161064,3.96452 -11.223176,7.21642 -11.249136,7.22644 -0.02596,0.01 -5.111475,-3.2344 -11.30114,-7.20983 z"
         style="fill:#784421;fill-opacity:1;stroke:#ffffff;stroke-width:0.30000001;stroke-miterlimit:4;stroke-dasharray:none;stroke-opacity:1" />
      <path
         inkscape:connector-curvature="0"
         id="path63"
         d="M 71.531416,189.8788 V 186.02 l 5.764667,3.84164 c 3.170568,2.11289 5.773441,3.84935 5.784159,3.85879 0.01072,0.009 -2.583383,0.0172 -5.76467,0.0172 h -5.784156 z"
         style="fill:#784421;fill-opacity:1;stroke:#ffffff;stroke-width:0.30000001;stroke-miterlimit:4;stroke-dasharray:none;stroke-opacity:1" />
      <path
         inkscape:connector-curvature="0"
         id="path65"
         d="m 83.671689,193.69261 c 0.02474,-0.0247 2.602011,-1.75034 5.727253,-3.83466 l 5.682258,-3.78966 0.03223,2.02224 c 0.01773,1.11223 0.03877,2.83783 0.04677,3.83468 l 0.01455,1.81244 -5.774023,-2e-5 c -3.697208,-2e-5 -5.757841,-0.0162 -5.729031,-0.045 z"
         style="fill:#784421;fill-opacity:1;stroke:#ffffff;stroke-width:0.30000001;stroke-miterlimit:4;stroke-dasharray:none;stroke-opacity:1" />
      <path
         inkscape:connector-curvature="0"
         id="path67"
         d="m 74.373512,220.07876 c 0.04464,-0.0725 2.089578,-3.29228 4.544306,-7.15499 3.821025,-6.01269 4.471103,-7.01149 4.518485,-6.9424 0.03044,0.0444 2.039919,3.20625 4.46551,7.02637 2.425592,3.82011 4.450607,7.00354 4.500034,7.07429 l 0.08987,0.12862 H 83.39203 74.292348 Z"
         style="fill:#782121;fill-opacity:1;stroke:#ffffff;stroke-width:0.30000001;stroke-miterlimit:4;stroke-dasharray:none;stroke-opacity:1" />
      <path
         inkscape:connector-curvature="0"
         id="path71"
         d="m 68.216313,230.28422 c -0.340272,-2.3822 -0.610047,-4.3399 -0.599495,-4.35045 0.01056,-0.0106 0.804421,1.02844 1.76416,2.30887 0.959739,1.28043 1.793393,2.39223 1.852564,2.47068 l 0.107585,0.14263 -1.253069,1.87977 -1.253069,1.87976 z"
         style="fill:#784421;fill-opacity:1;stroke:#ffffff;stroke-width:0.30000001;stroke-miterlimit:4;stroke-dasharray:none;stroke-opacity:1" />
      <path
         inkscape:connector-curvature="0"
         id="path73"
         d="m 74.418446,220.05864 c 0.152352,-0.25749 6.325251,-9.96816 7.440482,-11.70473 1.128668,-1.7575 1.503588,-2.31523 1.556351,-2.31523 0.01834,0 0.270394,0.3736 0.560134,0.83021 0.289737,0.45661 2.307216,3.62903 4.483285,7.04981 2.176068,3.42078 3.963506,6.23588 3.972078,6.25578 0.0086,0.0199 -4.060928,0.0362 -9.043339,0.0362 h -9.058934 z"
         style="fill:#784421;fill-opacity:1;stroke:#ffffff;stroke-width:0.30000001;stroke-miterlimit:4;stroke-dasharray:none;stroke-opacity:1" />
      <path
         inkscape:connector-curvature="0"
         id="path75"
         d="m 68.661753,233.27178 c -0.630492,-4.43112 -1.011529,-7.18433 -0.996392,-7.19946 0.0096,-0.01 0.09052,0.0725 0.17975,0.18245 0.285157,0.35149 3.452442,4.56601 3.452442,4.59395 0,0.0299 -2.425388,3.67421 -2.445263,3.67421 -0.0069,0 -0.09263,-0.56302 -0.190537,-1.25115 z"
         style="fill:#501616;fill-opacity:1;stroke:#ffffff;stroke-width:0.30000001;stroke-miterlimit:4;stroke-dasharray:none;stroke-opacity:1" />
      <path
         inkscape:connector-curvature="0"
         id="path77"
         d="m 96.601295,232.74642 c -0.681705,-1.02369 -1.235361,-1.87939 -1.230347,-1.90156 0.02056,-0.091 3.683383,-4.93552 3.698139,-4.89125 0.01378,0.0413 -1.197459,8.62509 -1.220062,8.6463 -0.0046,0.004 -0.566026,-0.82981 -1.24773,-1.85349 z"
         style="fill:#501616;fill-opacity:1;stroke:#ffffff;stroke-width:0.30000001;stroke-miterlimit:4;stroke-dasharray:none;stroke-opacity:1" />
      <path
         inkscape:connector-curvature="0"
         id="path79"
         d="m 77.486993,199.76334 -5.88528,-5.88542 h 11.739033 11.739036 l -2.058453,2.06967 c -1.13215,1.13832 -3.766341,3.78676 -5.853756,5.88542 l -3.795297,3.81575 z"
         style="fill:#501616;fill-opacity:1;stroke:#ffffff;stroke-width:0.30000001;stroke-miterlimit:4;stroke-dasharray:none;stroke-opacity:1" />
      <path
         inkscape:connector-curvature="0"
         id="path81"
         d="m 77.494896,189.82558 -5.84649,-3.89893 h 11.6439 c 6.46099,0 11.624122,0.0178 11.599468,0.04 -0.02445,0.022 -1.686137,1.14095 -3.692662,2.4865 -2.006526,1.34555 -4.595366,3.08205 -5.752979,3.85888 l -2.104747,1.41243 z"
         style="fill:#501616;fill-opacity:1;stroke:#ffffff;stroke-width:0.30000001;stroke-miterlimit:4;stroke-dasharray:none;stroke-opacity:1" />
      <path
         inkscape:connector-curvature="0"
         id="path83"
         d="m 66.187155,174.74027 c -2.898799,-6.05093 -5.261869,-11.01037 -5.25127,-11.02097 0.02424,-0.0242 22.144776,14.17501 22.146781,14.21609 0.0013,0.0288 -11.472124,7.74792 -11.575171,7.78747 -0.02739,0.0105 -2.421538,-4.93166 -5.32034,-10.98259 z"
         style="fill:#501616;fill-opacity:1;stroke:#ffffff;stroke-width:0.30000001;stroke-miterlimit:4;stroke-dasharray:none;stroke-opacity:1" />
      <path
         inkscape:connector-curvature="0"
         id="path85"
         d="m 89.295424,181.84496 c -4.432916,-2.93524 -5.865495,-3.90581 -5.823133,-3.94518 0.09761,-0.0907 22.117089,-14.24444 22.134119,-14.22741 0.009,0.009 -0.24179,0.563 -0.55717,1.23126 -0.31538,0.66826 -2.6531,5.62972 -5.194944,11.02547 -2.541838,5.39576 -4.634581,9.81009 -4.650538,9.80964 -0.01595,-5.3e-4 -2.674708,-1.75266 -5.908334,-3.89378 z"
         style="fill:#501616;fill-opacity:1;stroke:#ffffff;stroke-width:0.30000001;stroke-miterlimit:4;stroke-dasharray:none;stroke-opacity:1" />
      <path
         inkscape:connector-curvature="0"
         id="path87"
         d="m 47.937195,151.36755 c 0.02445,-0.0227 5.322056,-3.55865 11.772484,-7.85772 l 11.72805,-7.81649 h 11.903657 11.903657 l 11.728047,7.81649 c 6.45043,4.29907 11.74805,7.83504 11.77249,7.85772 0.0256,0.0238 -14.94107,0.0412 -35.404194,0.0412 -20.463123,0 -35.42984,-0.0174 -35.404191,-0.0412 z"
         style="fill:#501616;fill-opacity:1;stroke:#ffffff;stroke-width:0.30000001;stroke-miterlimit:4;stroke-dasharray:none;stroke-opacity:1" />
      <path
         inkscape:connector-curvature="0"
         id="path89"
         d="m 68.846154,234.42709 c -0.0435,-0.1255 -1.150056,-8.04778 -1.150056,-8.23373 0,-0.0782 0.02093,-0.0686 0.133614,0.061 0.124185,0.14279 3.138072,4.14155 3.361174,4.45953 l 0.100452,0.14317 -1.210831,1.81896 c -0.712367,1.07015 -1.220515,1.79102 -1.234353,1.7511 z"
         style="fill:#800000;fill-opacity:1;stroke:#ffffff;stroke-width:0.30000001;stroke-miterlimit:4;stroke-dasharray:none;stroke-opacity:1" />
      <path
         inkscape:connector-curvature="0"
         id="path91"
         d="m 96.609298,232.70593 -1.222269,-1.84039 0.149524,-0.21759 c 0.395759,-0.57591 3.457022,-4.59947 3.48111,-4.57538 0.0099,0.01 -0.07788,0.71032 -0.195096,1.55648 -0.329203,2.3765 -0.960596,6.81827 -0.976638,6.8705 -0.0079,0.0257 -0.564385,-0.7814 -1.236631,-1.79362 z"
         style="fill:#800000;fill-opacity:1;stroke:#ffffff;stroke-width:0.30000001;stroke-miterlimit:4;stroke-dasharray:none;stroke-opacity:1" />
      <path
         inkscape:connector-curvature="0"
         id="path93"
         d="m 85.946752,193.69152 -2.212168,-0.0241 5.655561,-3.774 5.655558,-3.774 0.02907,1.17814 c 0.01598,0.64799 0.04258,2.36207 0.05909,3.80909 l 0.03002,2.63093 -3.502488,-0.011 c -1.926368,-0.006 -4.497962,-0.0218 -5.714653,-0.0351 z"
         style="fill:#800000;fill-opacity:1;stroke:#ffffff;stroke-width:0.30000001;stroke-miterlimit:4;stroke-dasharray:none;stroke-opacity:1" />
      <path
         inkscape:connector-curvature="0"
         id="path95"
         d="m 71.531416,189.89691 v -3.8407 l 0.128621,0.0838 c 0.07075,0.0461 2.641264,1.75861 5.71227,3.80561 l 5.583645,3.72183 -2.44991,0.0283 c -1.347451,0.0156 -3.917971,0.0314 -5.712269,0.0351 l -3.262357,0.007 z"
         style="fill:#800000;fill-opacity:1;stroke:#ffffff;stroke-width:0.30000001;stroke-miterlimit:4;stroke-dasharray:none;stroke-opacity:1" />
      <path
         inkscape:connector-curvature="0"
         id="path97"
         d="m 66.256793,207.01129 -7.905519,-13.10998 6.531372,-0.0119 6.531371,-0.0119 5.928606,5.92847 c 3.260733,3.26065 5.928606,5.94292 5.928606,5.96059 0,0.0261 -8.855437,13.98887 -9.050745,14.27069 -0.05087,0.0734 -1.050951,-1.56243 -7.963691,-13.02605 z"
         style="fill:#800000;fill-opacity:1;stroke:#ffffff;stroke-width:0.30000001;stroke-miterlimit:4;stroke-dasharray:none;stroke-opacity:1" />
      <path
         inkscape:connector-curvature="0"
         id="path99"
         d="m 88.049557,212.96495 c -2.499458,-3.93394 -4.543872,-7.1701 -4.543148,-7.19145 7.94e-4,-0.0214 2.65797,-2.70769 5.904987,-5.96963 l 5.903664,-5.93079 6.51299,0.0141 6.51299,0.0141 -7.85176,13.08637 c -4.318468,7.19751 -7.861545,13.09617 -7.873507,13.10813 -0.01196,0.012 -2.066759,-3.19693 -4.566216,-7.13087 z"
         style="fill:#782121;fill-opacity:1;stroke:#ffffff;stroke-width:0.30000001;stroke-miterlimit:4;stroke-dasharray:none;stroke-opacity:1" />
      <path
         inkscape:connector-curvature="0"
         id="path101"
         d="m 74.012866,219.73039 c -0.549643,-0.83452 -2.216729,-3.58144 -9.160981,-15.09487 -2.893674,-4.79766 -5.53044,-9.16883 -5.859481,-9.71371 l -0.598255,-0.99071 6.486782,-0.0155 6.486782,-0.0156 5.92837,5.91728 c 3.260606,3.25451 5.928373,5.93245 5.928373,5.95099 0,0.0364 -1.317654,2.12746 -4.723984,7.49675 -3.507685,5.52905 -4.264949,6.71186 -4.29654,6.71097 -0.01643,-5.3e-4 -0.10242,-0.11096 -0.191066,-0.24556 z"
         style="fill:#782121;fill-opacity:1;stroke:#ffffff;stroke-width:0.30000001;stroke-miterlimit:4;stroke-dasharray:none;stroke-opacity:1" />
      <path
         inkscape:connector-curvature="0"
         id="path103"
         d="m 91.889925,218.93975 c -2.883937,-4.4842 -8.338063,-13.09818 -8.338063,-13.16872 0,-0.0214 2.657242,-2.70545 5.904984,-5.96456 l 5.904987,-5.92567 6.462107,0.0336 6.46211,0.0336 -7.78749,12.97928 c -4.283115,7.1386 -7.814355,13.00722 -7.847198,13.04138 -0.04896,0.0509 -0.186082,-0.13437 -0.761437,-1.02899 z"
         style="fill:#782121;fill-opacity:1;stroke:#ffffff;stroke-width:0.30000001;stroke-miterlimit:4;stroke-dasharray:none;stroke-opacity:1" />
      <path
         inkscape:connector-curvature="0"
         id="path105"
         d="m 71.531416,189.90735 v -3.84042 l 5.665816,3.77687 5.665817,3.77687 -0.466241,0.0287 c -0.256434,0.0158 -2.806052,0.0444 -5.665817,0.0635 l -5.199575,0.0349 z"
         style="fill:#782121;fill-opacity:1;stroke:#ffffff;stroke-width:0.30000001;stroke-miterlimit:4;stroke-dasharray:none;stroke-opacity:1" />
      <path
         inkscape:connector-curvature="0"
         id="path107"
         d="m 87.47291,193.69319 c -1.972235,-0.0142 -3.598169,-0.038 -3.613184,-0.0531 -0.01503,-0.015 2.489989,-1.70549 5.566672,-3.7566 3.076686,-2.0511 5.600189,-3.72261 5.607785,-3.71445 0.01355,0.0145 0.118476,6.42333 0.117613,7.18265 l -5.29e-4,0.38587 -2.046282,-0.009 c -1.125456,-0.005 -3.659931,-0.0209 -5.632167,-0.0351 z"
         style="fill:#782121;fill-opacity:1;stroke:#ffffff;stroke-width:0.30000001;stroke-miterlimit:4;stroke-dasharray:none;stroke-opacity:1" />
      <path
         inkscape:connector-curvature="0"
         id="path109"
         d="m 68.846019,234.33554 c -0.05776,-0.16019 -1.163595,-8.13997 -1.132364,-8.1712 0.05367,-0.0537 3.54706,4.62056 3.522753,4.71351 -0.01902,0.0727 -2.083295,3.17014 -2.273213,3.41092 -0.07243,0.0918 -0.09735,0.10177 -0.117176,0.0468 z"
         style="fill:#782121;fill-opacity:1;stroke:#ffffff;stroke-width:0.30000001;stroke-miterlimit:4;stroke-dasharray:none;stroke-opacity:1" />
      <path
         inkscape:connector-curvature="0"
         id="path111"
         d="m 97.782704,234.42059 c -0.03131,-0.0377 -0.582062,-0.853 -1.223893,-1.81171 l -1.166969,-1.74312 0.237794,-0.33463 c 0.283147,-0.39844 1.698699,-2.27301 2.650141,-3.50949 0.373711,-0.48567 0.687557,-0.85879 0.697439,-0.82915 0.02281,0.0685 -0.0081,0.30532 -0.461711,3.5363 -0.66666,4.74855 -0.669677,4.76786 -0.732801,4.6918 z"
         style="fill:#782121;fill-opacity:1;stroke:#ffffff;stroke-width:0.30000001;stroke-miterlimit:4;stroke-dasharray:none;stroke-opacity:1" />
      <path
         inkscape:connector-curvature="0"
         id="path113"
         d="m 93.560259,184.63246 c -2.099726,-1.37657 -9.276697,-6.15211 -9.720654,-6.4681 l -0.343678,-0.24462 0.312719,-0.20979 c 0.382174,-0.25638 4.371258,-2.82663 10.874991,-7.007 9.435983,-6.06511 10.817883,-6.94838 10.838553,-6.92771 0.0225,0.0225 -0.0996,0.28494 -2.70025,5.80454 -5.46595,11.60104 -7.558992,16.02013 -7.613552,16.07469 -0.01945,0.0194 -0.761093,-0.44047 -1.648129,-1.02201 z"
         style="fill:#782121;fill-opacity:1;stroke:#ffffff;stroke-width:0.30000001;stroke-miterlimit:4;stroke-dasharray:none;stroke-opacity:1" />
      <path
         inkscape:connector-curvature="0"
         id="path115"
         d="m 71.015542,184.69708 c -3.262297,-6.71476 -9.961092,-20.70628 -9.961092,-20.80535 0,-0.0229 0.01249,-0.0415 0.02776,-0.0415 0.06493,0 16.90671,10.79523 21.410091,13.72342 l 0.554077,0.36027 -0.343604,0.23739 c -1.116351,0.77129 -10.954938,7.38396 -11.108063,7.46591 -0.09166,0.049 -0.124489,-0.004 -0.579167,-0.9401 z"
         style="fill:#782121;fill-opacity:1;stroke:#ffffff;stroke-width:0.30000001;stroke-miterlimit:4;stroke-dasharray:none;stroke-opacity:1" />
      <path
         inkscape:connector-curvature="0"
         id="path117"
         d="m 56.961589,188.49152 c -0.720129,-2.88534 -1.332034,-5.26897 -1.359791,-5.29694 -0.02775,-0.028 -3.010906,-0.6402 -6.629225,-1.36049 l -6.578759,-1.30962 -2.61997,-7.85773 c -1.440985,-4.32175 -2.619973,-7.88413 -2.619973,-7.91641 0,-0.0323 2.359363,-3.00769 5.243028,-6.61202 l 5.243026,-6.55335 0.217625,0.20916 c 0.119692,0.11503 2.964317,2.71964 6.32139,5.78802 3.357073,3.06838 6.183067,5.65569 6.279986,5.74958 0.147082,0.14247 1.057254,2.00961 5.504296,11.29157 3.076816,6.42199 5.320652,11.15942 5.310503,11.21211 -0.0097,0.0502 0.0024,0.0913 0.02651,0.0913 0.02725,0 0.04409,1.49161 0.04409,3.90548 v 3.90547 H 64.80762 58.270914 Z"
         style="fill:#501616;fill-opacity:1;stroke:#ffffff;stroke-width:0.30000001;stroke-miterlimit:4;stroke-dasharray:none;stroke-opacity:1" />
      <path
         inkscape:connector-curvature="0"
         id="path119"
         d="m 95.338446,189.83213 c 0,-2.66742 0.0154,-3.90548 0.04854,-3.90548 0.0267,0 0.04248,-0.0474 0.03508,-0.10541 -0.0081,-0.0635 2.069306,-4.5281 5.225024,-11.22917 l 5.23848,-11.12378 6.56697,-5.92451 c 3.61183,-3.25848 6.57953,-5.92858 6.59487,-5.93354 0.0153,-0.005 2.38679,2.94226 5.26986,6.54939 l 5.24196,6.55842 -2.63449,7.90344 -2.63448,7.90344 -6.4194,1.283 c -3.53067,0.70565 -6.50655,1.30135 -6.61305,1.32377 l -0.19366,0.0408 -1.32055,5.28256 -1.32055,5.28256 h -6.5423 -6.542306 z"
         style="fill:#501616;fill-opacity:1;stroke:#ffffff;stroke-width:0.30000001;stroke-miterlimit:4;stroke-dasharray:none;stroke-opacity:1" />
      <path
         inkscape:connector-curvature="0"
         id="path121"
         d="m 131.68809,135.21393 c 0.35274,-6.69485 0.64792,-12.252 0.65594,-12.34921 0.0129,-0.15621 0.61919,1.03261 5.21631,10.22807 l 5.20172,10.40483 -5.83315,1.94438 c -3.20823,1.06942 -5.84417,1.94439 -5.85766,1.94439 -0.0135,0 0.2641,-5.47761 0.61684,-12.17246 z"
         style="fill:#501616;fill-opacity:1;stroke:#ffffff;stroke-width:0.30000001;stroke-miterlimit:4;stroke-dasharray:none;stroke-opacity:1" />
      <path
         inkscape:connector-curvature="0"
         id="path123"
         d="m 133.20632,173.24628 c -2.3892,-1.07552 -4.3508,-1.96229 -4.35911,-1.97061 -0.008,-0.008 0.18373,-1.4831 0.42676,-3.27731 l 0.44186,-3.26221 1.17665,-1.88122 c 0.64717,-1.03468 1.20388,-1.91097 1.23715,-1.94732 0.0514,-0.0562 0.75866,0.22813 4.70886,1.89281 l 4.64836,1.95891 0.64561,1.93871 c 0.5452,1.63721 0.63686,1.9527 0.58942,2.02867 -0.0516,0.0827 -5.07775,6.38334 -5.14287,6.44701 -0.0158,0.0154 -1.98349,-0.85192 -4.37269,-1.92744 z"
         style="fill:#501616;fill-opacity:1;stroke:#ffffff;stroke-width:0.30000001;stroke-miterlimit:4;stroke-dasharray:none;stroke-opacity:1" />
      <path
         inkscape:connector-curvature="0"
         id="path125"
         d="m 29.730472,145.43831 -5.809759,-1.94069 5.201702,-10.40353 c 2.860937,-5.72194 5.206634,-10.38771 5.212662,-10.36839 0.006,0.0193 0.294544,5.45487 0.641143,12.07898 0.346602,6.6241 0.639607,12.16485 0.651127,12.31277 0.01445,0.18549 0.0042,0.26779 -0.03308,0.26524 -0.02972,-0.002 -2.668423,-0.877 -5.863791,-1.94438 z"
         style="fill:#501616;fill-opacity:1;stroke:#ffffff;stroke-width:0.30000001;stroke-miterlimit:4;stroke-dasharray:none;stroke-opacity:1" />
      <path
         inkscape:connector-curvature="0"
         id="path127"
         d="m 26.580298,172.02245 c -1.400311,-1.74927 -2.575127,-3.2268 -2.610704,-3.28339 -0.05867,-0.0933 -0.0047,-0.28289 0.580559,-2.03986 l 0.645244,-1.93695 4.589542,-1.93114 c 2.52425,-1.06213 4.630838,-1.94075 4.68131,-1.9525 0.07719,-0.018 0.28367,0.28712 1.299562,1.92014 l 1.207796,1.94149 0.439958,3.25874 c 0.241974,1.79231 0.431379,3.26731 0.420896,3.2778 -0.01405,0.014 -7.034509,3.18009 -8.517993,3.84139 l -0.190153,0.0848 z"
         style="fill:#501616;fill-opacity:1;stroke:#ffffff;stroke-width:0.30000001;stroke-miterlimit:4;stroke-dasharray:none;stroke-opacity:1" />
      <path
         inkscape:connector-curvature="0"
         id="path129"
         d="m 69.526266,228.16999 -1.959026,-2.61117 1.947008,-2.60178 1.947008,-2.60179 11.88013,-4e-5 11.88013,-4e-5 1.941045,2.5942 c 1.067575,1.42681 1.936951,2.60978 1.931947,2.62883 -0.005,0.019 -0.878475,1.19662 -1.941046,2.61683 l -1.931946,2.58219 -11.868112,0.002 -11.868113,0.002 z"
         style="fill:#501616;fill-opacity:1;stroke:#ffffff;stroke-width:0.30000001;stroke-miterlimit:4;stroke-dasharray:none;stroke-opacity:1" />
      <path
         inkscape:connector-curvature="0"
         id="path131"
         d="m 76.875919,251.36969 -6.460455,-4.52229 6.478426,-0.0118 c 3.563136,-0.007 9.382802,-0.007 12.932595,0 l 6.454166,0.0118 -6.42286,4.49384 c -3.532574,2.47161 -6.445036,4.50664 -6.472137,4.52229 -0.0271,0.0156 -2.956486,-2.00658 -6.509735,-4.49384 z"
         style="fill:#501616;fill-opacity:1;stroke:#ffffff;stroke-width:0.30000001;stroke-miterlimit:4;stroke-dasharray:none;stroke-opacity:1" />
      <path
         inkscape:connector-curvature="0"
         id="path133"
         d="m 30.523021,154.13704 c -3.581532,-5.7281 -6.505349,-10.42125 -6.497369,-10.42923 0.008,-0.008 5.275055,1.73953 11.70461,3.88336 8.662529,2.88838 11.688765,3.91568 11.684944,3.96664 -0.0049,0.0653 -10.304618,12.9863 -10.3559,12.99149 -0.01341,0.001 -2.954753,-4.68415 -6.536285,-10.41226 z"
         style="fill:#483737;fill-opacity:1;stroke:#ffffff;stroke-width:0.30000001;stroke-miterlimit:4;stroke-dasharray:none;stroke-opacity:1" />
      <path
         inkscape:connector-curvature="0"
         id="path135"
         d="m 124.43494,158.0673 c -2.85776,-3.57212 -5.18935,-6.51449 -5.18131,-6.53861 0.0148,-0.0444 23.37542,-7.84896 23.40498,-7.8194 0.0153,0.0153 -12.91374,20.72892 -12.99071,20.81254 -0.0204,0.0221 -2.3752,-2.88242 -5.23296,-6.45453 z"
         style="fill:#483737;fill-opacity:1;stroke:#ffffff;stroke-width:0.30000001;stroke-miterlimit:4;stroke-dasharray:none;stroke-opacity:1" />
      <path
         inkscape:connector-curvature="0"
         id="path137"
         d="m 68.958946,234.73298 c 0,-0.0131 0.56841,-0.87605 1.263134,-1.91766 l 1.263137,-1.89384 h 11.856169 11.85617 l 1.263136,1.89384 c 0.694725,1.04161 1.263134,1.90456 1.263134,1.91766 0,0.0131 -6.472097,0.0238 -14.38244,0.0238 -7.910343,0 -14.38244,-0.0107 -14.38244,-0.0238 z"
         style="fill:#483737;fill-opacity:1;stroke:#ffffff;stroke-width:0.30000001;stroke-miterlimit:4;stroke-dasharray:none;stroke-opacity:1" />
      <path
         inkscape:connector-curvature="0"
         id="path139"
         d="m 77.741647,255.22348 c -2.693988,-0.33949 -4.906344,-0.62656 -4.916345,-0.63796 -0.03606,-0.0411 -2.548522,-7.62119 -2.526075,-7.62119 0.02186,0 12.358304,8.62254 12.592439,8.80147 l 0.111546,0.0852 -0.181706,-0.005 c -0.09994,-0.003 -2.385874,-0.28292 -5.079859,-0.6224 z"
         style="fill:#483737;fill-opacity:1;stroke:#ffffff;stroke-width:0.30000001;stroke-miterlimit:4;stroke-dasharray:none;stroke-opacity:1" />
      <path
         inkscape:connector-curvature="0"
         id="path141"
         d="m 83.696076,255.83411 c 0.129405,-0.11246 12.685247,-8.87148 12.698312,-8.85842 0.0099,0.01 -0.551675,1.72679 -1.247918,3.81535 -1.113912,3.34145 -1.278054,3.8 -1.367166,3.81937 -0.155426,0.0338 -9.88319,1.24063 -10.000038,1.24063 -0.05648,0 -0.09391,-0.008 -0.08319,-0.0169 z"
         style="fill:#483737;fill-opacity:1;stroke:#ffffff;stroke-width:0.30000001;stroke-miterlimit:4;stroke-dasharray:none;stroke-opacity:1" />
      <path
         inkscape:connector-curvature="0"
         id="path143"
         d="m 94.829063,185.43555 c -0.187759,-0.11577 -0.350272,-0.21048 -0.361138,-0.21048 -0.0541,0 -10.492256,-6.94891 -10.820895,-7.20371 l -0.151839,-0.11772 1.58351,-1.02394 c 1.785895,-1.15481 15.086569,-9.70625 17.543689,-11.27942 0.88061,-0.56382 1.81479,-1.16193 2.07594,-1.32914 0.26116,-0.16721 0.54843,-0.34277 0.63839,-0.39014 l 0.16357,-0.0861 -0.0287,0.11442 c -0.0408,0.16268 -8.555384,18.23487 -10.103339,21.44439 -0.07755,0.16078 -0.153771,0.29233 -0.169389,0.29233 -0.01561,0 -0.18202,-0.0947 -0.369779,-0.21047 z"
         style="fill:#483737;fill-opacity:1;stroke:#ffffff;stroke-width:0.30000001;stroke-miterlimit:4;stroke-dasharray:none;stroke-opacity:1" />
      <path
         inkscape:connector-curvature="0"
         id="path145"
         d="m 70.801319,184.25987 c -1.600036,-3.26564 -8.089355,-16.79503 -9.262224,-19.31053 -0.215897,-0.46305 -0.413263,-0.87845 -0.438594,-0.92312 -0.106423,-0.18769 -0.01212,-0.20072 0.234582,-0.0324 0.06431,0.0439 0.232691,0.15235 0.374177,0.24107 2.334881,1.46401 20.027151,12.81889 21.061547,13.51728 l 0.27132,0.18318 -0.177774,0.12787 c -0.84465,0.60752 -11.188679,7.54377 -11.289236,7.57007 -0.07675,0.0201 -0.186473,-0.17469 -0.773798,-1.3734 z"
         style="fill:#483737;fill-opacity:1;stroke:#ffffff;stroke-width:0.30000001;stroke-miterlimit:4;stroke-dasharray:none;stroke-opacity:1" />
      <path
         inkscape:connector-curvature="0"
         id="path147"
         d="m 71.531416,189.90753 c 0,-3.81192 7.93e-4,-3.84344 0.09229,-3.79446 0.231921,0.12412 11.244564,7.48392 11.203191,7.48715 -0.02572,0.002 -0.01072,0.018 0.03334,0.0354 0.08955,0.0355 0.222954,0.0339 -6.476209,0.0813 l -4.852611,0.0344 z"
         style="fill:#483737;fill-opacity:1;stroke:#ffffff;stroke-width:0.30000001;stroke-miterlimit:4;stroke-dasharray:none;stroke-opacity:1" />
      <path
         inkscape:connector-curvature="0"
         id="path149"
         d="m 87.660791,193.71499 c -0.01243,-0.0124 -0.900679,-0.0238 -1.973874,-0.0252 -1.258699,-0.002 -1.941229,-0.0188 -1.922996,-0.0483 0.01556,-0.0252 0.04768,-0.0337 0.07141,-0.0191 0.02373,0.0147 0.09467,-0.0249 0.157636,-0.0878 0.06297,-0.063 0.125791,-0.10319 0.139608,-0.0894 0.01381,0.0138 0.03834,-0.009 0.05451,-0.0515 0.01617,-0.0421 0.04838,-0.0648 0.07159,-0.0505 0.0232,0.0143 0.05478,-0.007 0.07016,-0.0468 0.01537,-0.0401 0.04695,-0.0611 0.07016,-0.0468 0.0232,0.0143 0.05478,-0.007 0.07016,-0.0468 0.01537,-0.0401 0.04695,-0.0611 0.07016,-0.0468 0.0232,0.0143 0.05478,-0.007 0.07016,-0.0468 0.01537,-0.0401 0.04695,-0.0611 0.07016,-0.0468 0.0232,0.0143 0.05478,-0.007 0.07016,-0.0468 0.01537,-0.0401 0.04695,-0.0611 0.07016,-0.0468 0.0232,0.0143 0.05478,-0.007 0.07016,-0.0468 0.01537,-0.0401 0.04695,-0.0611 0.07016,-0.0468 0.0232,0.0143 0.05483,-0.007 0.07026,-0.047 0.01542,-0.0402 0.05738,-0.0731 0.09322,-0.0731 0.03583,0 0.06515,-0.021 0.06515,-0.0468 0,-0.0257 0.03157,-0.0468 0.07016,-0.0468 0.03859,0 0.07016,-0.021 0.07016,-0.0468 0,-0.0257 0.03157,-0.0468 0.07016,-0.0468 0.03859,0 0.07016,-0.021 0.07016,-0.0468 0,-0.0257 0.03157,-0.0468 0.07016,-0.0468 0.03859,0 0.07016,-0.021 0.07016,-0.0468 0,-0.0257 0.03157,-0.0468 0.07016,-0.0468 0.03859,0 0.07016,-0.021 0.07016,-0.0468 0,-0.0257 0.03157,-0.0468 0.07016,-0.0468 0.03859,0 0.07016,-0.021 0.07016,-0.0468 0,-0.0257 0.03157,-0.0468 0.07016,-0.0468 0.03859,0 0.07016,-0.021 0.07016,-0.0468 0,-0.0257 0.03157,-0.0468 0.07016,-0.0468 0.03859,0 0.07016,-0.0211 0.07016,-0.0468 0,-0.0257 0.03157,-0.0468 0.07016,-0.0468 0.03859,0 0.07016,-0.021 0.07016,-0.0468 0,-0.0257 0.03157,-0.0468 0.07016,-0.0468 0.03859,0 0.07016,-0.0211 0.07016,-0.0468 0,-0.0257 0.03157,-0.0468 0.07016,-0.0468 0.03859,0 0.07016,-0.021 0.07016,-0.0468 0,-0.0257 0.03157,-0.0468 0.07016,-0.0468 0.03859,0 0.07016,-0.0211 0.07016,-0.0468 0,-0.0257 0.03157,-0.0468 0.07016,-0.0468 0.03859,0 0.07016,-0.021 0.07016,-0.0468 0,-0.0257 0.03157,-0.0468 0.07016,-0.0468 0.03859,0 0.07016,-0.021 0.07016,-0.0468 0,-0.0257 0.03157,-0.0468 0.07016,-0.0468 0.03859,0 0.07016,-0.021 0.07016,-0.0468 0,-0.0257 0.03157,-0.0468 0.07016,-0.0468 0.03859,0 0.07016,-0.021 0.07016,-0.0468 0,-0.0257 0.02982,-0.0468 0.06626,-0.0468 0.03644,0 0.07328,-0.0182 0.08185,-0.0404 0.02029,-0.0525 4.659646,-3.14014 4.718296,-3.14014 0.02458,0 0.04467,-0.021 0.04467,-0.0468 0,-0.0257 0.02037,-0.0468 0.04527,-0.0468 0.0249,0 0.647573,-0.3999 1.38372,-0.88867 0.736148,-0.48877 1.354754,-0.88868 1.374685,-0.88868 0.05161,0 0.09095,1.46854 0.126222,4.7123 l 0.03064,2.81802 h -3.740927 c -2.057509,0 -3.751101,-0.0102 -3.763537,-0.0226 z"
         style="fill:#483737;fill-opacity:1;stroke:#ffffff;stroke-width:0.30000001;stroke-miterlimit:4;stroke-dasharray:none;stroke-opacity:1" />
      <path
         inkscape:connector-curvature="0"
         id="path151"
         d="m 73.870023,219.52589 c -0.269201,-0.42167 -0.354558,-0.56021 -0.629936,-1.02242 -0.18668,-0.31334 -0.213688,-0.35722 -0.445506,-0.72383 -0.08986,-0.14212 -0.179562,-0.28996 -0.199331,-0.32855 -0.01976,-0.0386 -0.07748,-0.1333 -0.128247,-0.21047 -0.05076,-0.0772 -0.113974,-0.18241 -0.140462,-0.23386 -0.02649,-0.0515 -0.08935,-0.15669 -0.139692,-0.23386 -0.05034,-0.0772 -0.139483,-0.2221 -0.198088,-0.32206 -0.11127,-0.18978 -0.126828,-0.21494 -0.321402,-0.51984 -0.06567,-0.1029 -0.133872,-0.21866 -0.15157,-0.25725 -0.0177,-0.0386 -0.06878,-0.12601 -0.113514,-0.19428 -0.04474,-0.0683 -0.165526,-0.26568 -0.268425,-0.43871 -0.102899,-0.17302 -0.223607,-0.36974 -0.268245,-0.43714 -0.04463,-0.0674 -0.10342,-0.16465 -0.13063,-0.2161 -0.08519,-0.16107 -0.721252,-1.20929 -0.945129,-1.55755 -0.04464,-0.0694 -0.10283,-0.16835 -0.129318,-0.2198 -0.02649,-0.0515 -0.08963,-0.15668 -0.140316,-0.23386 -0.05069,-0.0772 -0.113829,-0.18241 -0.140317,-0.23386 -0.02649,-0.0514 -0.08468,-0.14969 -0.129317,-0.21832 -0.04464,-0.0686 -0.249537,-0.40446 -0.455335,-0.74628 -0.205798,-0.34182 -0.421309,-0.6961 -0.478917,-0.78728 -0.05761,-0.0912 -0.126323,-0.20787 -0.152704,-0.25932 -0.02638,-0.0514 -0.08944,-0.15669 -0.140121,-0.23386 -0.05068,-0.0772 -0.113826,-0.18241 -0.140316,-0.23386 -0.02649,-0.0515 -0.08468,-0.14968 -0.129318,-0.21829 -0.04463,-0.0686 -0.281107,-0.45684 -0.525492,-0.86274 -0.244385,-0.4059 -0.491469,-0.81281 -0.549076,-0.90424 -0.0576,-0.0914 -0.126323,-0.20835 -0.152702,-0.2598 -0.02638,-0.0515 -0.08874,-0.15668 -0.138565,-0.23386 -0.04983,-0.0772 -0.117922,-0.18711 -0.151315,-0.24431 -0.153792,-0.26341 -0.780127,-1.29829 -1.041051,-1.72012 -0.159123,-0.25725 -0.304395,-0.49929 -0.322829,-0.53788 -0.01844,-0.0386 -0.05943,-0.11225 -0.0911,-0.1637 -0.166971,-0.27123 -0.295466,-0.48114 -0.344665,-0.56304 -0.03032,-0.0505 -0.36708,-0.60718 -0.748355,-1.23713 -0.381273,-0.62995 -0.714272,-1.1828 -0.739998,-1.22855 -0.02572,-0.0457 -1.046527,-1.73731 -2.26845,-3.75902 -1.221922,-2.0217 -2.228482,-3.70515 -2.236801,-3.74099 -0.01283,-0.0553 0.633193,-0.0669 4.256268,-0.0769 2.349264,-0.006 5.257313,-0.009 6.462331,-0.006 l 2.190943,0.005 0.464259,0.46252 c 0.255342,0.25438 0.474388,0.45725 0.486765,0.45082 0.01238,-0.006 0.01725,-0.003 0.01082,0.007 -0.0222,0.0351 0.164611,0.21313 0.200401,0.191 0.03069,-0.019 9.332076,9.32082 10.341713,10.38443 0.325798,0.34321 0.382302,0.45246 0.278194,0.53788 -0.04257,0.0349 -0.284875,0.41466 -0.284875,0.44645 0,0.0151 -0.05262,0.0965 -0.116932,0.18081 -0.06431,0.0843 -0.11693,0.16851 -0.11693,0.18709 0,0.0186 -0.05262,0.10277 -0.11693,0.18709 -0.06431,0.0843 -0.11693,0.16892 -0.11693,0.18801 0,0.0191 -0.06692,0.13287 -0.148714,0.25284 -0.357024,0.52365 -0.412552,0.60911 -0.412552,0.63491 0,0.015 -0.07367,0.12986 -0.163703,0.25519 -0.09004,0.12532 -0.163703,0.24254 -0.163703,0.26047 0,0.0179 -0.05262,0.1016 -0.11693,0.18592 -0.06431,0.0843 -0.11693,0.16955 -0.11693,0.1894 0,0.0198 -0.07367,0.13644 -0.163703,0.25909 -0.09004,0.12266 -0.163703,0.23842 -0.163703,0.25725 0,0.0188 -0.07367,0.13459 -0.163703,0.25725 -0.09004,0.12265 -0.163703,0.23738 -0.163703,0.25494 0,0.0176 -0.05262,0.10092 -0.11693,0.18524 -0.06431,0.0843 -0.11693,0.16954 -0.11693,0.18939 0,0.0198 -0.07367,0.13645 -0.163703,0.2591 -0.09004,0.12265 -0.163703,0.23842 -0.163703,0.25725 0,0.0188 -0.07367,0.13459 -0.1637,0.25724 -0.09004,0.12266 -0.163703,0.2378 -0.163703,0.25587 0,0.0181 -0.05913,0.12049 -0.131408,0.22759 -0.336614,0.49884 -0.429858,0.64372 -0.429858,0.66788 0,0.0143 -0.05943,0.11369 -0.132064,0.2208 -0.175705,0.25908 -0.893543,1.38293 -1.060627,1.66051 -0.02572,0.0427 -0.115176,0.17524 -0.198782,0.29444 -0.08361,0.11921 -0.152008,0.23215 -0.152008,0.25098 0,0.0188 -0.07367,0.1346 -0.163703,0.25725 -0.09004,0.12266 -0.163703,0.23842 -0.163703,0.25725 0,0.0188 -0.07367,0.13459 -0.163703,0.25725 -0.09004,0.12265 -0.163703,0.23592 -0.163703,0.25171 0,0.0158 -0.07367,0.13124 -0.163703,0.25656 -0.09004,0.12533 -0.163703,0.24109 -0.163703,0.25725 0,0.0162 -0.07367,0.13192 -0.163701,0.25725 -0.09004,0.12532 -0.163703,0.24253 -0.163703,0.26047 0,0.0179 -0.05262,0.1016 -0.11693,0.18592 -0.06431,0.0843 -0.116932,0.17763 -0.116932,0.20735 0,0.0297 -0.02103,0.0541 -0.04677,0.0541 -0.02572,0 -0.04677,0.0225 -0.04677,0.0499 0,0.0274 -0.05262,0.11888 -0.11693,0.20319 -0.06431,0.0843 -0.116929,0.16955 -0.116929,0.1894 0,0.0198 -0.07367,0.13644 -0.163703,0.2591 -0.09004,0.12265 -0.163703,0.23841 -0.163703,0.25724 0,0.0188 -0.07367,0.1346 -0.163703,0.25725 -0.09004,0.12265 -0.163703,0.23746 -0.163703,0.25513 0,0.0177 -0.09471,0.16486 -0.210474,0.32708 -0.11576,0.16223 -0.210476,0.31684 -0.210476,0.34358 0,0.0267 -0.0158,0.0556 -0.03508,0.0642 -0.04794,0.0213 -0.292325,0.40079 -0.292325,0.45392 0,0.04 -0.109162,0.10029 -0.179221,0.099 -0.0172,-2.6e-4 -0.147016,-0.18191 -0.288502,-0.40353 z"
         style="fill:#483737;fill-opacity:1;stroke:#ffffff;stroke-width:0.30000001;stroke-miterlimit:4;stroke-dasharray:none;stroke-opacity:1" />
      <path
         inkscape:connector-curvature="0"
         id="path153"
         d="m 92.007427,219.12697 c -2.408304,-3.72872 -8.455565,-13.28065 -8.455565,-13.35596 0,-0.022 2.657242,-2.70819 5.904984,-5.9692 l 5.904987,-5.92911 6.466177,0.0377 6.46618,0.0377 -1.03764,1.73057 c -6.19013,10.3239 -14.558378,24.24099 -14.60554,24.29022 -0.04889,0.051 -0.164679,-0.10043 -0.643583,-0.8419 z"
         style="fill:#6c5353;fill-opacity:1;stroke:#ffffff;stroke-width:0.30000001;stroke-miterlimit:4;stroke-dasharray:none;stroke-opacity:1" />
      <path
         inkscape:connector-curvature="0"
         id="path155"
         d="m 73.972879,219.66108 c -0.386289,-0.57315 -3.482091,-5.68371 -12.091082,-19.96002 -2.992953,-4.96323 -3.399816,-5.64303 -3.399816,-5.68054 0,-0.0799 1.147437,-0.0958 6.891038,-0.0958 h 6.03477 l 5.759929,5.76467 c 3.167959,3.17057 5.817693,5.85218 5.888297,5.95913 l 0.12837,0.19445 -0.175202,0.27327 c -0.09636,0.1503 -0.220509,0.34693 -0.275881,0.43697 -0.154133,0.25062 -0.308514,0.49631 -0.617191,0.98221 -0.155247,0.24439 -0.919355,1.45462 -1.698019,2.6894 -0.77866,1.23479 -1.725102,2.72916 -2.103194,3.32083 -0.378095,0.59167 -0.799642,1.25466 -0.93677,1.47332 -0.137128,0.21866 -0.357852,0.56594 -0.490501,0.77174 -0.560668,0.86986 -0.819314,1.28955 -0.819314,1.32947 0,0.0234 -0.01606,0.0495 -0.03569,0.0581 -0.02707,0.0118 -0.832591,1.25529 -1.390856,2.14704 -0.209683,0.33494 -0.407776,0.60472 -0.444032,0.60472 -0.02397,0 -0.125159,-0.12103 -0.224854,-0.26894 z"
         style="fill:#6c5353;fill-opacity:1;stroke:#ffffff;stroke-width:0.30000001;stroke-miterlimit:4;stroke-dasharray:none;stroke-opacity:1" />
      <path
         inkscape:connector-curvature="0"
         id="path157"
         d="m 71.535511,190.15213 c 0.0024,-1.97673 0.01805,-3.69567 0.03508,-3.81987 l 0.03098,-0.22581 1.450453,0.95232 c 2.395384,1.57273 9.686962,6.47197 9.725792,6.53479 0.03052,0.0494 -2.218623,0.0876 -7.305849,0.12427 l -3.940553,0.0284 z"
         style="fill:#6c5353;fill-opacity:1;stroke:#ffffff;stroke-width:0.30000001;stroke-miterlimit:4;stroke-dasharray:none;stroke-opacity:1" />
      <path
         inkscape:connector-curvature="0"
         id="path159"
         d="m 85.905188,193.69306 c -1.085204,-0.0151 -1.983959,-0.0382 -1.997236,-0.0515 -0.03124,-0.0312 0.544047,-0.42237 4.71869,-3.20814 1.903627,-1.27031 3.503234,-2.34045 3.554685,-2.37809 0.08016,-0.0587 0.922501,-0.60943 2.439543,-1.59513 l 0.381566,-0.24793 0.02873,0.26645 c 0.02822,0.26167 0.118401,5.21563 0.119589,6.56899 l 5.29e-4,0.68988 -3.636537,-0.009 c -2.000096,-0.005 -4.52443,-0.0209 -5.609635,-0.036 z"
         style="fill:#6c5353;fill-opacity:1;stroke:#ffffff;stroke-width:0.30000001;stroke-miterlimit:4;stroke-dasharray:none;stroke-opacity:1" />
      <path
         inkscape:connector-curvature="0"
         id="path161"
         d="m 70.986678,184.60534 c -0.276354,-0.54665 -0.621554,-1.24648 -0.767104,-1.55518 -0.145552,-0.30869 -0.470143,-0.98221 -0.721315,-1.49671 -0.591449,-1.2115 -0.963631,-1.98363 -1.634527,-3.39098 -0.300447,-0.63025 -0.576511,-1.16904 -0.613473,-1.19731 -0.03696,-0.0283 -0.05597,-0.0626 -0.04224,-0.0764 0.03951,-0.0395 -0.481704,-1.11171 -0.540425,-1.11171 -0.02903,0 -0.04054,-0.0198 -0.02561,-0.044 0.03721,-0.0602 -0.469802,-1.12533 -0.535667,-1.12533 -0.02903,0 -0.04106,-0.019 -0.02673,-0.0421 0.03616,-0.0585 -0.42491,-1.03362 -0.488738,-1.03362 -0.02849,0 -0.04008,-0.019 -0.02574,-0.0421 0.03616,-0.0585 -0.424908,-1.03362 -0.488736,-1.03362 -0.02849,0 -0.03957,-0.0198 -0.02461,-0.044 0.01495,-0.0242 -0.09712,-0.30307 -0.249047,-0.61973 -0.151927,-0.31666 -0.418127,-0.87041 -0.591553,-1.23055 -0.5373,-1.11578 -0.868913,-1.80887 -1.051777,-2.1983 -0.190405,-0.40548 -0.453155,-0.95808 -0.91871,-1.93217 -0.163648,-0.34241 -0.297543,-0.63071 -0.297543,-0.64068 0,-0.01 -0.200556,-0.43254 -0.445682,-0.93906 -0.245129,-0.50652 -0.433724,-0.93291 -0.419103,-0.94753 0.03916,-0.0392 0.307673,0.11995 1.645243,0.97492 0.664048,0.42445 1.243065,0.79279 1.286705,0.81851 0.04364,0.0257 0.306732,0.19288 0.584653,0.37145 0.277918,0.17858 0.754184,0.48377 1.05837,0.6782 0.304186,0.19443 0.716413,0.45875 0.916057,0.58738 0.199646,0.12862 0.609602,0.39171 0.911013,0.58465 0.301408,0.19293 0.825944,0.5315 1.165635,0.75236 0.339688,0.22086 0.638514,0.41029 0.664057,0.42095 0.02553,0.0107 0.162202,0.0959 0.303688,0.18938 1.234496,0.81579 1.517192,0.98661 1.560719,0.94309 0.01625,-0.0163 0.02954,-0.005 0.02954,0.0256 0,0.0621 0.501536,0.39698 0.59459,0.39698 0.03312,0 0.06022,0.0178 0.06022,0.0396 0,0.0509 0.515207,0.38139 0.594593,0.38139 0.03312,0 0.06022,0.0178 0.06022,0.0396 0,0.0509 0.515204,0.38139 0.59459,0.38139 0.03312,0 0.06022,0.0178 0.06022,0.0396 0,0.0502 0.514633,0.38139 0.59258,0.38139 0.03201,0 0.06831,0.0263 0.08066,0.0585 0.01236,0.0322 0.165854,0.14561 0.341112,0.25205 0.17526,0.10643 0.476509,0.29643 0.669443,0.42221 0.192934,0.12578 0.487601,0.3152 0.654809,0.42093 0.167212,0.10572 0.461875,0.29588 0.654812,0.42257 0.192934,0.12668 0.487598,0.31679 0.65481,0.42244 0.167211,0.10566 0.4568,0.29025 0.643535,0.41021 0.186735,0.11996 0.618207,0.39572 0.958829,0.61282 0.340622,0.21709 0.882406,0.56563 1.203965,0.77452 0.321559,0.20889 0.99508,0.64496 1.496711,0.96904 1.240324,0.8013 1.844895,1.20758 1.860939,1.25056 0.02305,0.0617 -1.295736,0.96787 -5.359643,3.68269 -1.021192,0.68219 -2.479183,1.65652 -3.239985,2.16519 -2.10735,1.40897 -2.751158,1.8249 -2.824686,1.8249 -0.04053,0 -0.266541,-0.39434 -0.569656,-0.99391 z"
         style="fill:#6c5353;fill-opacity:1;stroke:#ffffff;stroke-width:0.30000001;stroke-miterlimit:4;stroke-dasharray:none;stroke-opacity:1" />
      <path
         inkscape:connector-curvature="0"
         id="path163"
         d="m 94.542701,185.25461 c -0.346942,-0.21079 -1.077698,-0.68252 -1.623901,-1.04829 -0.546203,-0.36578 -1.003744,-0.66505 -1.016759,-0.66505 -0.01302,0 -0.06074,-0.0302 -0.106051,-0.067 -0.04531,-0.0369 -1.881944,-1.26769 -4.081406,-2.73519 -2.199461,-1.46749 -4.047051,-2.70604 -4.105757,-2.75233 l -0.106738,-0.0842 0.387371,-0.2497 c 0.582896,-0.37573 1.095867,-0.7088 1.486516,-0.96519 0.192935,-0.12662 0.392886,-0.25346 0.444336,-0.28186 0.218782,-0.12075 1.310963,-0.84059 1.325211,-0.87342 0.0086,-0.0198 0.03521,-0.0359 0.05918,-0.0359 0.05352,0 0.573981,-0.33718 0.595624,-0.38587 0.0086,-0.0193 0.03363,-0.0351 0.05568,-0.0351 0.05299,0 3.993349,-2.53576 4.013499,-2.58283 0.0086,-0.02 0.03441,-0.0364 0.0574,-0.0364 0.05356,0 1.231468,-0.75814 1.25222,-0.80597 0.0086,-0.0198 0.03521,-0.0359 0.05918,-0.0359 0.05353,0 0.573985,-0.33718 0.595628,-0.38587 0.0086,-0.0193 0.03521,-0.0351 0.05918,-0.0351 0.05352,0 0.573982,-0.33718 0.595625,-0.38587 0.0086,-0.0193 0.03521,-0.0351 0.05918,-0.0351 0.05352,0 0.573981,-0.33718 0.595624,-0.38587 0.0086,-0.0193 0.03441,-0.0351 0.0574,-0.0351 0.05355,0 1.231466,-0.75814 1.25222,-0.80597 0.0086,-0.0198 0.0338,-0.0359 0.05606,-0.0359 0.02225,0 0.569333,-0.34202 1.215726,-0.76005 0.646393,-0.41802 1.210498,-0.78109 1.253564,-0.80682 0.04307,-0.0257 0.21086,-0.13622 0.372869,-0.24555 0.162013,-0.10933 0.304406,-0.19878 0.316434,-0.19878 0.03818,0 0.557624,-0.34926 0.573894,-0.38587 0.009,-0.0193 0.0352,-0.0351 0.0592,-0.0351 0.0535,0 0.57399,-0.33718 0.59563,-0.38587 0.009,-0.0193 0.0339,-0.0351 0.0562,-0.0351 0.0223,0 0.42206,-0.24731 0.88832,-0.54957 0.46625,-0.30227 0.88182,-0.57062 0.92349,-0.59635 0.0417,-0.0257 0.31895,-0.20375 0.61618,-0.3956 0.29724,-0.19186 0.58253,-0.3733 0.63397,-0.40321 0.0515,-0.0299 0.39773,-0.24579 0.7695,-0.47973 0.37177,-0.23393 0.68355,-0.41774 0.69284,-0.40845 0.009,0.009 -0.10206,0.2769 -0.24744,0.59469 -0.46156,1.00895 -1.85008,3.98564 -1.93858,4.15588 -0.0468,0.09 -0.38454,0.80565 -0.75055,1.59025 -0.366,0.78461 -0.75983,1.62651 -0.87517,1.87089 -0.11535,0.24438 -0.27335,0.58114 -0.35113,0.74835 -0.22861,0.49152 -0.47688,1.01997 -0.71415,1.5201 -0.32118,0.67699 -0.662294,1.398 -0.851934,1.80073 -0.09085,0.19293 -0.254958,0.54022 -0.364678,0.77174 -0.109723,0.23152 -0.283694,0.59985 -0.386607,0.81851 -0.180414,0.38334 -0.479838,1.01654 -0.851511,1.80073 -0.09754,0.2058 -0.266351,0.5636 -0.375134,0.79513 -0.108784,0.23152 -0.323668,0.68404 -0.477525,1.0056 -0.153856,0.32156 -0.543904,1.14241 -0.866778,1.82411 -0.885267,1.86913 -1.179692,2.47264 -1.217774,2.49618 -0.019,0.0118 -0.318415,-0.15111 -0.665356,-0.36189 z"
         style="fill:#6c5353;fill-opacity:1;stroke:#ffffff;stroke-width:0.30000001;stroke-miterlimit:4;stroke-dasharray:none;stroke-opacity:1" />
      <path
         inkscape:connector-curvature="0"
         id="path165"
         d="m 71.540729,190.73249 c 0.01333,-3.77058 0.0288,-4.57198 0.08825,-4.57198 0.02553,0 0.636355,0.38938 1.357374,0.86529 0.721018,0.47591 1.320921,0.86528 1.333121,0.86528 0.0122,0 0.06735,0.0421 0.122553,0.0935 0.05521,0.0514 0.159562,0.11971 0.231904,0.15173 0.07234,0.032 0.13153,0.0741 0.13153,0.0936 0,0.0195 0.03157,0.0354 0.07016,0.0354 0.03859,0 0.07016,0.021 0.07016,0.0468 0,0.0257 0.02175,0.0468 0.04833,0.0468 0.05963,0 1.044813,0.65533 1.066406,0.70935 0.0086,0.0215 0.04541,0.039 0.08185,0.039 0.03644,0 0.06626,0.021 0.06626,0.0468 0,0.0257 0.03157,0.0468 0.07016,0.0468 0.03859,0 0.07016,0.021 0.07016,0.0468 0,0.0257 0.03157,0.0468 0.07016,0.0468 0.03859,0 0.07016,0.021 0.07016,0.0468 0,0.0257 0.03157,0.0468 0.07016,0.0468 0.03859,0 0.07016,0.021 0.07016,0.0468 0,0.0257 0.03157,0.0468 0.07016,0.0468 0.03859,0 0.07016,0.0211 0.07016,0.0468 0,0.0257 0.03157,0.0468 0.07016,0.0468 0.03859,0 0.07016,0.021 0.07016,0.0468 0,0.0257 0.03157,0.0468 0.07016,0.0468 0.03859,0 0.07016,0.0211 0.07016,0.0468 0,0.0257 0.03157,0.0468 0.07016,0.0468 0.03859,0 0.07016,0.021 0.07016,0.0468 0,0.0257 0.03157,0.0468 0.07016,0.0468 0.03859,0 0.07016,0.0211 0.07016,0.0468 0,0.0257 0.02982,0.0468 0.06626,0.0468 0.03644,0 0.07328,0.0168 0.08185,0.0373 0.0086,0.0205 1.120582,0.782 2.471129,1.69221 1.350547,0.91021 2.534489,1.71201 2.630982,1.78178 l 0.175443,0.12686 -0.456075,0.03 c -0.402125,0.0265 -8.086114,0.11821 -10.033334,0.1198 l -0.737317,5.2e-4 z"
         style="fill:#784421;fill-opacity:1;stroke:#ffffff;stroke-width:0.30000001;stroke-miterlimit:4;stroke-dasharray:none;stroke-opacity:1" />
      <path
         inkscape:connector-curvature="0"
         id="path167"
         d="m 87.142964,193.69152 c -1.742111,-0.0161 -3.179217,-0.0409 -3.193565,-0.0553 -0.03565,-0.0356 0.657788,-0.50855 5.074806,-3.46085 4.369527,-2.92055 5.933056,-3.94393 5.969661,-3.90733 0.03018,0.0302 0.09063,2.41543 0.136271,5.37649 l 0.03226,2.09305 -2.425981,-0.008 c -1.334291,-0.005 -3.851344,-0.0216 -5.593456,-0.0376 z"
         style="fill:#784421;fill-opacity:1;stroke:#ffffff;stroke-width:0.30000001;stroke-miterlimit:4;stroke-dasharray:none;stroke-opacity:1" />
      <path
         inkscape:connector-curvature="0"
         id="path974"
         d="m 81.395775,255.7416 c -0.0016,-0.14837 -1.971542,-0.38906 -2.058688,-0.25152 -0.04445,0.0702 -0.05719,0.0645 -0.05798,-0.0259 -7.94e-4,-0.0875 -0.05626,-0.11575 -0.22701,-0.11575 -0.124299,0 -0.241012,0.0372 -0.259361,0.0827 -0.01992,0.0494 -0.03547,0.0361 -0.03859,-0.0331 -0.0039,-0.0872 -0.06233,-0.11575 -0.236731,-0.11575 -0.140039,0 -0.232307,0.0327 -0.233524,0.0827 -0.0011,0.0459 -0.03202,0.0312 -0.06943,-0.0331 -0.07805,-0.13401 -0.429562,-0.15822 -0.48006,-0.0331 -0.02132,0.0528 -0.03525,0.044 -0.03859,-0.0245 -0.0071,-0.1462 -0.919895,-0.24848 -1.005969,-0.11271 -0.04322,0.0682 -0.05579,0.0638 -0.05657,-0.0196 -7.93e-4,-0.0837 -0.09876,-0.11689 -0.447495,-0.15142 -1.01093,-0.1001 -3.277211,-0.42897 -3.33172,-0.48348 -0.06284,-0.0628 -2.50058,-7.37958 -2.470449,-7.41491 0.01646,-0.0193 3.995184,2.747 10.067266,6.99945 1.318064,0.92308 2.386372,1.68843 2.374021,1.70078 -0.01236,0.0124 -0.312816,-0.0118 -0.667697,-0.0536 -0.536427,-0.0633 -0.654947,-0.0608 -0.702823,0.0148 -0.04699,0.0742 -0.05778,0.072 -0.0586,-0.0121 z"
         style="fill:#784421;fill-opacity:1;stroke:#ffffff;stroke-width:0.30000001;stroke-miterlimit:4;stroke-dasharray:none;stroke-opacity:1" />
      <path
         inkscape:connector-curvature="0"
         id="path976"
         d="m 85.057495,254.91778 c 1.094991,-0.77305 8.595299,-6.00615 10.601618,-7.39694 0.354706,-0.24588 0.644922,-0.418 0.644922,-0.38249 0,0.13101 -2.245005,6.81779 -2.393161,7.12807 l -0.153453,0.32138 -2.629297,0.33007 c -2.152907,0.27026 -2.629482,0.34816 -2.63031,0.42994 -7.94e-4,0.0832 -0.01077,0.0845 -0.05931,0.008 -0.04908,-0.0775 -0.375409,-0.0537 -2.066044,0.1506 -1.104262,0.13346 -2.141696,0.26027 -2.305407,0.28179 -0.286001,0.0376 -0.247213,0.004 0.990439,-0.87025 z"
         style="fill:#6c5353;fill-opacity:1;stroke:#ffffff;stroke-width:0.30000001;stroke-miterlimit:4;stroke-dasharray:none;stroke-opacity:1" />
      <path
         inkscape:connector-curvature="0"
         id="path978"
         d="m 81.269228,255.67021 c -0.121248,-0.0642 -0.949436,-0.18681 -1.468578,-0.21749 -0.254661,-0.0151 -0.515609,-0.048 -0.579879,-0.0733 -0.06427,-0.0253 -0.191487,-0.0317 -0.2827,-0.0142 -0.09121,0.0174 -0.182427,0.005 -0.202697,-0.0279 -0.02027,-0.0328 -0.146066,-0.06 -0.279543,-0.0604 -0.38953,-10e-4 -0.685485,-0.0377 -0.994169,-0.12265 -0.158657,-0.0436 -0.396782,-0.0733 -0.529167,-0.066 -0.132384,0.007 -0.285347,-0.005 -0.339918,-0.0269 -0.05457,-0.0221 -0.590351,-0.10196 -1.190625,-0.17738 -1.156557,-0.14532 -2.275043,-0.31262 -2.458775,-0.3678 -0.08016,-0.0241 -0.439648,-1.02039 -1.306381,-3.62067 -0.65768,-1.9731 -1.195781,-3.62593 -1.195781,-3.67295 0,-0.10185 0.607449,0.31084 6.052343,4.11188 4.507836,3.14689 6.184636,4.33499 6.184636,4.38216 0,0.0454 -1.317236,0.002 -1.408766,-0.0464 z"
         style="fill:#6c5353;fill-opacity:1;stroke:#ffffff;stroke-width:0.30000001;stroke-miterlimit:4;stroke-dasharray:none;stroke-opacity:1" />
    </g>
  </g>
</svg>
